<svg xmlns="http://www.w3.org/2000/svg" width="133" height="45" fill="none"><g fill="#FDDC75" clip-path="url(#a)"><path d="M15.68 9.2l-2.65 2.64 4.72 1.3.94-.94c.25-.25.97-.98-.53-2.5-1.5-1.5-2.23-.77-2.5-.5zM29.8 23.3l-.9.9 1.3 4.72 2.66-2.65c.26-.26.98-.98-.52-2.5-1.5-1.44-2.3-.72-2.54-.46zM2.4 26.95c-.9-.1-1.57.15-2.2.78l-.1.1c-.05.05-.1.1-.1.16l6.33 4.55c.73-1.5 1.77-3.22 2.75-4.67-2.23-.36-4.46-.73-6.7-.93zM15.05 39.6c-.2-2.22-.57-4.45-.93-6.68-1.4.98-3.12 2.07-4.67 2.75L14.02 42c.05-.05.05-.05.15-.1l.1-.1c.63-.63.9-1.3.78-2.2zM21.07 15.1l-2.95-.77-.63-.15-.63-.16-4.67-1.24-.57-.16-.57-.16-5.2-1.4c-.62-.2-1.3-.1-1.7.37l-.22.2c-1.14 1.15-.83 1.46-.62 1.66.05.05.1.1.16.1l11.05 8.2 6.54-6.5zM31 36.13l-1.4-5.2-.17-.56-.15-.57-1.25-4.67-.16-.62-.15-.62-.78-2.95-6.54 6.54 8.2 11.1c.05.06.05.1.1.1.2.22.52.53 1.67-.56l.26-.25c.4-.47.57-1.14.36-1.72zM14.43 31.4c.16-.1.36-.25.52-.35.73-.52 1.25-.94 1.35-1.1l2.65-2.64 8.5-8.5 5.1-5.1c.67-.66 2.18-4.35 1.1-5.4-1.05-1.03-4.74.43-5.4 1.1l-5.1 5.1-8.5 8.55-2.66 2.65c-.16.16-.58.68-1.1 1.35-.1.16-.2.3-.36.52-.1.16-.2.3-.37.47-.52.78-1.1 1.6-1.6 2.5-.68 1.08-1.1 1.9-1.4 2.58-.1.2-.16.37-.2.52 0 .05-.07.1-.07.16 0 .05-.05.1-.05.15-.05.1-.05.16-.1.26-.26.84-.16 1.1-.1 1.16.05 0 .3.15 1.14-.1.1 0 .14-.06.25-.1.05 0 .1-.06.15-.06.05 0 .1-.06.16-.06.15-.05.3-.15.52-.2.67-.3 1.5-.73 2.6-1.4.87-.52 1.76-1.1 2.48-1.6.16-.17.3-.33.47-.43z"/></g><path fill="#fff" d="M49.58 11.7h6.12L60.23 36h-4.95l-.8-5.13H50.9L50.06 36H45l4.58-24.3zm4.38 15.96l-1.3-9.48-1.28 9.48h2.58zM62.7 11.7h6.14c2.1 0 3.74.26 4.92.78 1.18.52 2 1.34 2.5 2.46.5 1.1.74 2.58.74 4.44v8.82c0 1.88-.25 3.38-.75 4.5-.48 1.12-1.3 1.95-2.5 2.5-1.15.53-2.77.8-4.85.8h-6.2V11.7zm6.2 20.58c.78 0 1.35-.1 1.7-.33.4-.24.63-.57.73-1 .1-.43.15-1.07.15-1.9v-10.6c0-.78-.06-1.37-.18-1.77-.1-.42-.34-.73-.72-.93-.36-.2-.93-.3-1.7-.3h-.82v16.83h.84zm9.96-20.58h4.6l2.6 16.5 2.43-16.5h4.85L88.9 36h-5.66l-4.38-24.3zm23.83 24.66c-2.63 0-4.5-.67-5.62-2-1.12-1.37-1.68-3.37-1.68-6V19.3c0-2.64.56-4.62 1.68-5.94 1.12-1.34 3-2 5.6-2 2.65 0 4.53.66 5.65 2 1.14 1.34 1.72 3.32 1.72 5.94v9.03c0 2.64-.58 4.64-1.72 6-1.1 1.34-3 2-5.64 2zm0-3.8c.75 0 1.25-.26 1.5-.76.23-.52.36-1.22.36-2.1V18c0-.9-.13-1.6-.37-2.1-.25-.5-.75-.75-1.5-.75-.73 0-1.2.26-1.45.78-.23.5-.36 1.2-.36 2.07v11.7c0 .88.1 1.58.32 2.1.22.5.72.75 1.47.75zm10.94-20.86h5.76l2.67 14.13 2.88-14.13h5.55l.42 24.3h-3.8l-.46-16.17L123.84 36h-3.4l-3-16.3-.35 16.3h-3.88l.42-24.3z"/><defs><clipPath id="a"><path fill="#fff" d="M0 8h34v34H0z"/></clipPath></defs></svg>