<?xml version="1.0" ?><!DOCTYPE svg  PUBLIC '-//W3C//DTD SVG 1.1//EN'  'http://www.w3.org/Graphics/SVG/1.1/DTD/svg11.dtd'><svg enable-background="new 0 0 500 500" height="500px" id="Layer_1" version="1.1" viewBox="0 0 500 500" width="500px" xml:space="preserve" xmlns="http://www.w3.org/2000/svg" xmlns:xlink="http://www.w3.org/1999/xlink"><path clip-rule="evenodd" d="M31.949,431.711c0,20.078,16.264,36.34,36.34,36.34h363.421  c20.078,0,36.34-16.262,36.34-36.34V204.574c0-20.079-16.262-36.343-36.34-36.343h-36.345v-40.886  c0-52.694-42.703-95.396-95.396-95.396c-21.535,0-41.338,7.087-57.237,19.076c-12.903-6.354-27.348-9.992-42.702-9.992  c-52.694,0-95.398,42.705-95.398,95.398l0.089,31.799H68.29c-20.077,0-36.34,16.264-36.34,36.343V431.711z M349.938,168.231h-99.851  L250,127.345c0-27.619,22.348-49.97,49.97-49.97c27.621,0,49.969,22.351,49.969,49.97V168.231z M204.661,168.231h-54.513  l-0.088-31.799c0-27.62,22.349-49.97,49.97-49.97c4.453,0,8.815,0.551,12.899,1.722c-5.359,11.906-8.356,25.17-8.356,39.162  L204.661,168.231z M204.574,227.287c0-12.539,10.174-22.713,22.713-22.713c12.536,0,22.713,10.174,22.713,22.713  C250,239.823,239.823,250,227.287,250C214.748,250,204.574,239.823,204.574,227.287z M349.938,227.287  c0-12.539,10.18-22.713,22.717-22.713c12.535,0,22.711,10.174,22.711,22.713c0,12.536-10.176,22.713-22.711,22.713  C360.118,250,349.938,239.823,349.938,227.287z M113.718,231.83v172.623c0,9.992-8.177,18.172-18.17,18.172  c-9.996,0-18.173-8.18-18.173-18.172V231.83c0-9.991,8.177-18.172,18.173-18.172C105.542,213.658,113.718,221.838,113.718,231.83z" fill="#010101" fill-rule="evenodd"/></svg>