<?xml version="1.0" ?><!DOCTYPE svg  PUBLIC '-//W3C//DTD SVG 1.1//EN'  'http://www.w3.org/Graphics/SVG/1.1/DTD/svg11.dtd'><svg height="8.4666mm" style="shape-rendering:geometricPrecision; text-rendering:geometricPrecision; image-rendering:optimizeQuality; fill-rule:evenodd; clip-rule:evenodd" version="1.1" viewBox="0 0 846.66 846.66" width="8.4666mm" xml:space="preserve" xmlns="http://www.w3.org/2000/svg" xmlns:xlink="http://www.w3.org/1999/xlink"><defs><style type="text/css">
   <![CDATA[
    .fil0 {fill:black;fill-rule:nonzero}
   ]]>
  </style></defs><g id="Layer_x0020_1"><path class="fil0" d="M78.16 328.81l232.94 0 -47.95 -293.64c-3.1,-12.93 6.66,-25.55 20.13,-25.55l160.67 0.03c9.27,-0.01 17.71,6.26 20.05,15.66l76.39 303.5 155.44 0c53.8,0 114.06,35.41 114.06,94.52 0,59.11 -60.26,94.52 -114.06,94.52l-155.43 0 -76.4 303.5c-2.34,9.39 -10.78,15.66 -20.05,15.66l-160.67 0.02c-13.47,0 -23.23,-12.61 -20.13,-25.55l47.95 -293.63 -134.21 0c-4.64,0 -8.92,-1.52 -12.37,-4.1l-117.89 -72.88c-6.3,-3.89 -9.78,-10.64 -9.78,-17.54l-0.08 -210.62c0,-27.22 41.39,-27.22 41.39,0l0 116.1zm345.17 115.22c-27.22,0 -27.22,-41.4 0,-41.4l177.47 0c27.22,0 27.22,41.4 0,41.4l-177.47 0zm-70.4 -115.22l144.84 0 -69.92 -277.79 -120.28 0 45.36 277.79zm144.84 189.04l-144.84 0 -45.36 277.79 120.28 0 69.92 -277.79zm198.06 -147.65c-205.89,0 -411.78,0 -617.67,0l0 41.68 104.46 64.57 513.21 0c30.06,0 72.67,-17.71 72.67,-53.12 0,-35.41 -42.61,-53.13 -72.67,-53.13z"/></g></svg>