<?xml version="1.0" ?><svg viewBox="0 0 32 32" xmlns="http://www.w3.org/2000/svg"><defs><style>.cls-1{fill:#030303;}.cls-2{fill:none;}</style></defs><title/><g data-name="Layer 2" id="Layer_2"><g data-name="Layer 4" id="Layer_4"><path class="cls-1" d="M10.9,27.5a3.13,3.13,0,0,1-3.09-3.57l.54-3.82a1.14,1.14,0,0,0-.35-1L5.16,16.51a3.13,3.13,0,0,1,1.58-5.38l3.8-.66a1.12,1.12,0,0,0,.83-.64L13,6.32A3.11,3.11,0,0,1,15.73,4.5a3.08,3.08,0,0,1,2.85,1.66l1.81,3.41a1.1,1.1,0,0,0,.86.59l3.83.45A3.13,3.13,0,0,1,27,15.89l-2.69,2.77a1.11,1.11,0,0,0-.29,1l.76,3.78a3.13,3.13,0,0,1-4.44,3.42h0l-3.47-1.7a1.15,1.15,0,0,0-1.05,0l-3.36,1.89A3.13,3.13,0,0,1,10.9,27.5Zm4.92-21h0a1.09,1.09,0,0,0-1,.66l-1.61,3.5a3.13,3.13,0,0,1-2.31,1.78l-3.8.66A1.13,1.13,0,0,0,6.51,15l2.84,2.61a3.13,3.13,0,0,1,1,2.74l-.54,3.82a1.09,1.09,0,0,0,.47,1.09,1.11,1.11,0,0,0,1.19.05l3.36-1.89a3.12,3.12,0,0,1,2.91-.08l3.47,1.69h0a1.13,1.13,0,0,0,1.6-1.24L22,20.06a3.09,3.09,0,0,1,.82-2.79l2.68-2.77a1.09,1.09,0,0,0,.25-1.16,1.08,1.08,0,0,0-.93-.74L21,12.15a3.12,3.12,0,0,1-2.4-1.64L16.81,7.1A1.08,1.08,0,0,0,15.82,6.5Z"/><rect class="cls-2" height="32" width="32"/></g></g></svg>